<svg xmlns="http://www.w3.org/2000/svg" width="1400" height="1000" viewBox="0 0 1400 1000">
  <rect width="100%" height="100%" fill="#f8fafc" />
  <text x="42" y="38" font-family="Segoe UI, Arial" font-size="26" font-weight="700" fill="#0f172a">TopicGraph EJ - comunidades detectadas (150 feedbacks)</text>
  <text x="42" y="966" font-family="Segoe UI, Arial" font-size="15" fill="#475569">N?s: 150 | Comunidades: 11 | Outliers: 0</text>
  <g font-family="Segoe UI, Arial"><rect x="42" y="61" width="15" height="15" rx="2" fill="#0f766e" /><text x="66" y="74" font-size="16" fill="#0f172a">Comunidade 1: 16 feedbacks</text><rect x="42" y="85" width="15" height="15" rx="2" fill="#2563eb" /><text x="66" y="98" font-size="16" fill="#0f172a">Comunidade 2: 16 feedbacks</text><rect x="42" y="109" width="15" height="15" rx="2" fill="#d97706" /><text x="66" y="122" font-size="16" fill="#0f172a">Comunidade 3: 16 feedbacks</text><rect x="42" y="133" width="15" height="15" rx="2" fill="#7c3aed" /><text x="66" y="146" font-size="16" fill="#0f172a">Comunidade 4: 14 feedbacks</text><rect x="42" y="157" width="15" height="15" rx="2" fill="#dc2626" /><text x="66" y="170" font-size="16" fill="#0f172a">Comunidade 5: 14 feedbacks</text><rect x="42" y="181" width="15" height="15" rx="2" fill="#059669" /><text x="66" y="194" font-size="16" fill="#0f172a">Comunidade 6: 14 feedbacks</text><rect x="42" y="205" width="15" height="15" rx="2" fill="#9333ea" /><text x="66" y="218" font-size="16" fill="#0f172a">Comunidade 7: 7 feedbacks</text><rect x="42" y="229" width="15" height="15" rx="2" fill="#0891b2" /><text x="66" y="242" font-size="16" fill="#0f172a">Comunidade 8: 7 feedbacks</text><rect x="42" y="253" width="15" height="15" rx="2" fill="#be123c" /><text x="66" y="266" font-size="16" fill="#0f172a">Comunidade 9: 14 feedbacks</text><rect x="42" y="277" width="15" height="15" rx="2" fill="#4d7c0f" /><text x="66" y="290" font-size="16" fill="#0f172a">Comunidade 10: 13 feedbacks</text><rect x="42" y="301" width="15" height="15" rx="2" fill="#64748b" /><text x="66" y="314" font-size="16" fill="#0f172a">Comunidade 11: 19 feedbacks</text></g>
  <g><line x1="1097.4" y1="500.0" x2="1101.3" y2="521.2" stroke="#0f766e" stroke-width="1.2" opacity="0.25" /><line x1="1101.3" y1="521.2" x2="1094.9" y2="544.9" stroke="#0f766e" stroke-width="1.2" opacity="0.25" /><line x1="1094.9" y1="544.9" x2="1077.4" y2="566.1" stroke="#0f766e" stroke-width="1.2" opacity="0.25" /><line x1="1077.4" y1="566.1" x2="1050.0" y2="547.4" stroke="#0f766e" stroke-width="1.2" opacity="0.25" /><line x1="1050.0" y1="547.4" x2="1028.8" y2="551.3" stroke="#0f766e" stroke-width="1.2" opacity="0.25" /><line x1="1028.8" y1="551.3" x2="1005.1" y2="544.9" stroke="#0f766e" stroke-width="1.2" opacity="0.25" /><line x1="1005.1" y1="544.9" x2="983.9" y2="527.4" stroke="#0f766e" stroke-width="1.2" opacity="0.25" /><line x1="983.9" y1="527.4" x2="1002.6" y2="500.0" stroke="#0f766e" stroke-width="1.2" opacity="0.25" /><line x1="1002.6" y1="500.0" x2="998.7" y2="478.8" stroke="#0f766e" stroke-width="1.2" opacity="0.25" /><line x1="998.7" y1="478.8" x2="1005.1" y2="455.1" stroke="#0f766e" stroke-width="1.2" opacity="0.25" /><line x1="1005.1" y1="455.1" x2="1022.6" y2="433.9" stroke="#0f766e" stroke-width="1.2" opacity="0.25" /><line x1="1022.6" y1="433.9" x2="1050.0" y2="452.6" stroke="#0f766e" stroke-width="1.2" opacity="0.25" /><line x1="1050.0" y1="452.6" x2="1071.2" y2="448.7" stroke="#0f766e" stroke-width="1.2" opacity="0.25" /><line x1="1071.2" y1="448.7" x2="1094.9" y2="455.1" stroke="#0f766e" stroke-width="1.2" opacity="0.25" /><line x1="1094.9" y1="455.1" x2="1116.1" y2="472.6" stroke="#0f766e" stroke-width="1.2" opacity="0.25" /><line x1="1116.1" y1="472.6" x2="1097.4" y2="500.0" stroke="#0f766e" stroke-width="1.2" opacity="0.25" /><line x1="1041.9" y1="689.2" x2="1045.7" y2="710.5" stroke="#2563eb" stroke-width="1.2" opacity="0.25" /><line x1="1045.7" y1="710.5" x2="1039.4" y2="734.2" stroke="#2563eb" stroke-width="1.2" opacity="0.25" /><line x1="1039.4" y1="734.2" x2="1021.8" y2="755.4" stroke="#2563eb" stroke-width="1.2" opacity="0.25" /><line x1="1021.8" y1="755.4" x2="994.4" y2="736.7" stroke="#2563eb" stroke-width="1.2" opacity="0.25" /><line x1="994.4" y1="736.7" x2="973.2" y2="740.5" stroke="#2563eb" stroke-width="1.2" opacity="0.25" /><line x1="973.2" y1="740.5" x2="949.5" y2="734.2" stroke="#2563eb" stroke-width="1.2" opacity="0.25" /><line x1="949.5" y1="734.2" x2="928.3" y2="716.6" stroke="#2563eb" stroke-width="1.2" opacity="0.25" /><line x1="928.3" y1="716.6" x2="947.0" y2="689.2" stroke="#2563eb" stroke-width="1.2" opacity="0.25" /><line x1="947.0" y1="689.2" x2="943.2" y2="668.0" stroke="#2563eb" stroke-width="1.2" opacity="0.25" /><line x1="943.2" y1="668.0" x2="949.5" y2="644.3" stroke="#2563eb" stroke-width="1.2" opacity="0.25" /><line x1="949.5" y1="644.3" x2="967.0" y2="623.1" stroke="#2563eb" stroke-width="1.2" opacity="0.25" /><line x1="967.0" y1="623.1" x2="994.4" y2="641.8" stroke="#2563eb" stroke-width="1.2" opacity="0.25" /><line x1="994.4" y1="641.8" x2="1015.7" y2="638.0" stroke="#2563eb" stroke-width="1.2" opacity="0.25" /><line x1="1015.7" y1="638.0" x2="1039.4" y2="644.3" stroke="#2563eb" stroke-width="1.2" opacity="0.25" /><line x1="1039.4" y1="644.3" x2="1060.6" y2="661.8" stroke="#2563eb" stroke-width="1.2" opacity="0.25" /><line x1="1060.6" y1="661.8" x2="1041.9" y2="689.2" stroke="#2563eb" stroke-width="1.2" opacity="0.25" /><line x1="892.8" y1="818.4" x2="896.7" y2="839.6" stroke="#d97706" stroke-width="1.2" opacity="0.25" /><line x1="896.7" y1="839.6" x2="890.3" y2="863.3" stroke="#d97706" stroke-width="1.2" opacity="0.25" /><line x1="890.3" y1="863.3" x2="872.8" y2="884.5" stroke="#d97706" stroke-width="1.2" opacity="0.25" /><line x1="872.8" y1="884.5" x2="845.4" y2="865.8" stroke="#d97706" stroke-width="1.2" opacity="0.25" /><line x1="845.4" y1="865.8" x2="824.2" y2="869.6" stroke="#d97706" stroke-width="1.2" opacity="0.25" /><line x1="824.2" y1="869.6" x2="800.5" y2="863.3" stroke="#d97706" stroke-width="1.2" opacity="0.25" /><line x1="800.5" y1="863.3" x2="779.2" y2="845.8" stroke="#d97706" stroke-width="1.2" opacity="0.25" /><line x1="779.2" y1="845.8" x2="798.0" y2="818.4" stroke="#d97706" stroke-width="1.2" opacity="0.25" /><line x1="798.0" y1="818.4" x2="794.1" y2="797.1" stroke="#d97706" stroke-width="1.2" opacity="0.25" /><line x1="794.1" y1="797.1" x2="800.5" y2="773.4" stroke="#d97706" stroke-width="1.2" opacity="0.25" /><line x1="800.5" y1="773.4" x2="818.0" y2="752.2" stroke="#d97706" stroke-width="1.2" opacity="0.25" /><line x1="818.0" y1="752.2" x2="845.4" y2="770.9" stroke="#d97706" stroke-width="1.2" opacity="0.25" /><line x1="845.4" y1="770.9" x2="866.6" y2="767.1" stroke="#d97706" stroke-width="1.2" opacity="0.25" /><line x1="866.6" y1="767.1" x2="890.3" y2="773.4" stroke="#d97706" stroke-width="1.2" opacity="0.25" /><line x1="890.3" y1="773.4" x2="911.5" y2="791.0" stroke="#d97706" stroke-width="1.2" opacity="0.25" /><line x1="911.5" y1="791.0" x2="892.8" y2="818.4" stroke="#d97706" stroke-width="1.2" opacity="0.25" /><line x1="693.5" y1="846.4" x2="695.9" y2="868.4" stroke="#7c3aed" stroke-width="1.2" opacity="0.25" /><line x1="695.9" y1="868.4" x2="686.4" y2="891.8" stroke="#7c3aed" stroke-width="1.2" opacity="0.25" /><line x1="686.4" y1="891.8" x2="664.7" y2="910.2" stroke="#7c3aed" stroke-width="1.2" opacity="0.25" /><line x1="664.7" y1="910.2" x2="640.5" y2="888.7" stroke="#7c3aed" stroke-width="1.2" opacity="0.25" /><line x1="640.5" y1="888.7" x2="618.6" y2="886.1" stroke="#7c3aed" stroke-width="1.2" opacity="0.25" /><line x1="618.6" y1="886.1" x2="597.9" y2="871.6" stroke="#7c3aed" stroke-width="1.2" opacity="0.25" /><line x1="597.9" y1="871.6" x2="584.8" y2="846.4" stroke="#7c3aed" stroke-width="1.2" opacity="0.25" /><line x1="584.8" y1="846.4" x2="611.2" y2="827.6" stroke="#7c3aed" stroke-width="1.2" opacity="0.25" /><line x1="611.2" y1="827.6" x2="618.6" y2="806.8" stroke="#7c3aed" stroke-width="1.2" opacity="0.25" /><line x1="618.6" y1="806.8" x2="637.3" y2="789.9" stroke="#7c3aed" stroke-width="1.2" opacity="0.25" /><line x1="637.3" y1="789.9" x2="664.7" y2="782.7" stroke="#7c3aed" stroke-width="1.2" opacity="0.25" /><line x1="664.7" y1="782.7" x2="677.2" y2="812.6" stroke="#7c3aed" stroke-width="1.2" opacity="0.25" /><line x1="677.2" y1="812.6" x2="695.9" y2="824.4" stroke="#7c3aed" stroke-width="1.2" opacity="0.25" /><line x1="695.9" y1="824.4" x2="693.5" y2="846.4" stroke="#7c3aed" stroke-width="1.2" opacity="0.25" /><line x1="514.1" y1="764.5" x2="516.5" y2="786.5" stroke="#dc2626" stroke-width="1.2" opacity="0.25" /><line x1="516.5" y1="786.5" x2="507.0" y2="809.9" stroke="#dc2626" stroke-width="1.2" opacity="0.25" /><line x1="507.0" y1="809.9" x2="485.4" y2="828.3" stroke="#dc2626" stroke-width="1.2" opacity="0.25" /><line x1="485.4" y1="828.3" x2="461.2" y2="806.8" stroke="#dc2626" stroke-width="1.2" opacity="0.25" /><line x1="461.2" y1="806.8" x2="439.2" y2="804.1" stroke="#dc2626" stroke-width="1.2" opacity="0.25" /><line x1="439.2" y1="804.1" x2="418.5" y2="789.7" stroke="#dc2626" stroke-width="1.2" opacity="0.25" /><line x1="418.5" y1="789.7" x2="405.4" y2="764.5" stroke="#dc2626" stroke-width="1.2" opacity="0.25" /><line x1="405.4" y1="764.5" x2="431.8" y2="745.7" stroke="#dc2626" stroke-width="1.2" opacity="0.25" /><line x1="431.8" y1="745.7" x2="439.2" y2="724.9" stroke="#dc2626" stroke-width="1.2" opacity="0.25" /><line x1="439.2" y1="724.9" x2="457.9" y2="707.9" stroke="#dc2626" stroke-width="1.2" opacity="0.25" /><line x1="457.9" y1="707.9" x2="485.4" y2="700.8" stroke="#dc2626" stroke-width="1.2" opacity="0.25" /><line x1="485.4" y1="700.8" x2="497.8" y2="730.6" stroke="#dc2626" stroke-width="1.2" opacity="0.25" /><line x1="497.8" y1="730.6" x2="516.5" y2="742.5" stroke="#dc2626" stroke-width="1.2" opacity="0.25" /><line x1="516.5" y1="742.5" x2="514.1" y2="764.5" stroke="#dc2626" stroke-width="1.2" opacity="0.25" /><line x1="407.5" y1="598.6" x2="409.8" y2="620.6" stroke="#059669" stroke-width="1.2" opacity="0.25" /><line x1="409.8" y1="620.6" x2="400.4" y2="644.0" stroke="#059669" stroke-width="1.2" opacity="0.25" /><line x1="400.4" y1="644.0" x2="378.7" y2="662.4" stroke="#059669" stroke-width="1.2" opacity="0.25" /><line x1="378.7" y1="662.4" x2="354.5" y2="640.8" stroke="#059669" stroke-width="1.2" opacity="0.25" /><line x1="354.5" y1="640.8" x2="332.6" y2="638.2" stroke="#059669" stroke-width="1.2" opacity="0.25" /><line x1="332.6" y1="638.2" x2="311.9" y2="623.8" stroke="#059669" stroke-width="1.2" opacity="0.25" /><line x1="311.9" y1="623.8" x2="298.8" y2="598.6" stroke="#059669" stroke-width="1.2" opacity="0.25" /><line x1="298.8" y1="598.6" x2="325.1" y2="579.8" stroke="#059669" stroke-width="1.2" opacity="0.25" /><line x1="325.1" y1="579.8" x2="332.6" y2="559.0" stroke="#059669" stroke-width="1.2" opacity="0.25" /><line x1="332.6" y1="559.0" x2="351.3" y2="542.0" stroke="#059669" stroke-width="1.2" opacity="0.25" /><line x1="351.3" y1="542.0" x2="378.7" y2="534.8" stroke="#059669" stroke-width="1.2" opacity="0.25" /><line x1="378.7" y1="534.8" x2="391.2" y2="564.7" stroke="#059669" stroke-width="1.2" opacity="0.25" /><line x1="391.2" y1="564.7" x2="409.8" y2="576.6" stroke="#059669" stroke-width="1.2" opacity="0.25" /><line x1="409.8" y1="576.6" x2="407.5" y2="598.6" stroke="#059669" stroke-width="1.2" opacity="0.25" /><line x1="393.1" y1="401.4" x2="385.3" y2="427.9" stroke="#9333ea" stroke-width="1.2" opacity="0.25" /><line x1="385.3" y1="427.9" x2="355.5" y2="439.2" stroke="#9333ea" stroke-width="1.2" opacity="0.25" /><line x1="355.5" y1="439.2" x2="324.8" y2="420.4" stroke="#9333ea" stroke-width="1.2" opacity="0.25" /><line x1="324.8" y1="420.4" x2="338.1" y2="388.8" stroke="#9333ea" stroke-width="1.2" opacity="0.25" /><line x1="338.1" y1="388.8" x2="356.6" y2="368.4" stroke="#9333ea" stroke-width="1.2" opacity="0.25" /><line x1="356.6" y1="368.4" x2="388.4" y2="371.1" stroke="#9333ea" stroke-width="1.2" opacity="0.25" /><line x1="388.4" y1="371.1" x2="393.1" y2="401.4" stroke="#9333ea" stroke-width="1.2" opacity="0.25" /><line x1="499.7" y1="235.5" x2="491.9" y2="262.0" stroke="#0891b2" stroke-width="1.2" opacity="0.25" /><line x1="491.9" y1="262.0" x2="462.2" y2="273.3" stroke="#0891b2" stroke-width="1.2" opacity="0.25" /><line x1="462.2" y1="273.3" x2="431.4" y2="254.4" stroke="#0891b2" stroke-width="1.2" opacity="0.25" /><line x1="431.4" y1="254.4" x2="444.7" y2="222.9" stroke="#0891b2" stroke-width="1.2" opacity="0.25" /><line x1="444.7" y1="222.9" x2="463.3" y2="202.5" stroke="#0891b2" stroke-width="1.2" opacity="0.25" /><line x1="463.3" y1="202.5" x2="495.0" y2="205.2" stroke="#0891b2" stroke-width="1.2" opacity="0.25" /><line x1="495.0" y1="205.2" x2="499.7" y2="235.5" stroke="#0891b2" stroke-width="1.2" opacity="0.25" /><line x1="693.5" y1="153.6" x2="695.9" y2="175.6" stroke="#be123c" stroke-width="1.2" opacity="0.25" /><line x1="695.9" y1="175.6" x2="686.4" y2="198.9" stroke="#be123c" stroke-width="1.2" opacity="0.25" /><line x1="686.4" y1="198.9" x2="664.7" y2="217.3" stroke="#be123c" stroke-width="1.2" opacity="0.25" /><line x1="664.7" y1="217.3" x2="640.5" y2="195.8" stroke="#be123c" stroke-width="1.2" opacity="0.25" /><line x1="640.5" y1="195.8" x2="618.6" y2="193.2" stroke="#be123c" stroke-width="1.2" opacity="0.25" /><line x1="618.6" y1="193.2" x2="597.9" y2="178.7" stroke="#be123c" stroke-width="1.2" opacity="0.25" /><line x1="597.9" y1="178.7" x2="584.8" y2="153.6" stroke="#be123c" stroke-width="1.2" opacity="0.25" /><line x1="584.8" y1="153.6" x2="611.2" y2="134.8" stroke="#be123c" stroke-width="1.2" opacity="0.25" /><line x1="611.2" y1="134.8" x2="618.6" y2="113.9" stroke="#be123c" stroke-width="1.2" opacity="0.25" /><line x1="618.6" y1="113.9" x2="637.3" y2="97.0" stroke="#be123c" stroke-width="1.2" opacity="0.25" /><line x1="637.3" y1="97.0" x2="664.7" y2="89.8" stroke="#be123c" stroke-width="1.2" opacity="0.25" /><line x1="664.7" y1="89.8" x2="677.2" y2="119.7" stroke="#be123c" stroke-width="1.2" opacity="0.25" /><line x1="677.2" y1="119.7" x2="695.9" y2="131.6" stroke="#be123c" stroke-width="1.2" opacity="0.25" /><line x1="695.9" y1="131.6" x2="693.5" y2="153.6" stroke="#be123c" stroke-width="1.2" opacity="0.25" /><line x1="886.7" y1="181.6" x2="888.1" y2="204.1" stroke="#4d7c0f" stroke-width="1.2" opacity="0.25" /><line x1="888.1" y1="204.1" x2="876.8" y2="227.1" stroke="#4d7c0f" stroke-width="1.2" opacity="0.25" /><line x1="876.8" y1="227.1" x2="852.9" y2="243.5" stroke="#4d7c0f" stroke-width="1.2" opacity="0.25" /><line x1="852.9" y1="243.5" x2="830.8" y2="220.2" stroke="#4d7c0f" stroke-width="1.2" opacity="0.25" /><line x1="830.8" y1="220.2" x2="809.3" y2="213.6" stroke="#4d7c0f" stroke-width="1.2" opacity="0.25" /><line x1="809.3" y1="213.6" x2="791.7" y2="194.9" stroke="#4d7c0f" stroke-width="1.2" opacity="0.25" /><line x1="791.7" y1="194.9" x2="784.9" y2="166.7" stroke="#4d7c0f" stroke-width="1.2" opacity="0.25" /><line x1="784.9" y1="166.7" x2="814.5" y2="154.3" stroke="#4d7c0f" stroke-width="1.2" opacity="0.25" /><line x1="814.5" y1="154.3" x2="828.3" y2="136.5" stroke="#4d7c0f" stroke-width="1.2" opacity="0.25" /><line x1="828.3" y1="136.5" x2="852.1" y2="126.7" stroke="#4d7c0f" stroke-width="1.2" opacity="0.25" /><line x1="852.1" y1="126.7" x2="880.8" y2="130.4" stroke="#4d7c0f" stroke-width="1.2" opacity="0.25" /><line x1="880.8" y1="130.4" x2="881.9" y2="162.4" stroke="#4d7c0f" stroke-width="1.2" opacity="0.25" /><line x1="881.9" y1="162.4" x2="886.7" y2="181.6" stroke="#4d7c0f" stroke-width="1.2" opacity="0.25" /><line x1="1048.0" y1="310.8" x2="1053.7" y2="331.1" stroke="#64748b" stroke-width="1.2" opacity="0.25" /><line x1="1053.7" y1="331.1" x2="1051.1" y2="354.9" stroke="#64748b" stroke-width="1.2" opacity="0.25" /><line x1="1051.1" y1="354.9" x2="1038.7" y2="378.5" stroke="#64748b" stroke-width="1.2" opacity="0.25" /><line x1="1038.7" y1="378.5" x2="1007.6" y2="362.7" stroke="#64748b" stroke-width="1.2" opacity="0.25" /><line x1="1007.6" y1="362.7" x2="989.3" y2="373.3" stroke="#64748b" stroke-width="1.2" opacity="0.25" /><line x1="989.3" y1="373.3" x2="965.6" y2="376.5" stroke="#64748b" stroke-width="1.2" opacity="0.25" /><line x1="965.6" y1="376.5" x2="939.6" y2="370.3" stroke="#64748b" stroke-width="1.2" opacity="0.25" /><line x1="939.6" y1="370.3" x2="947.3" y2="336.3" stroke="#64748b" stroke-width="1.2" opacity="0.25" /><line x1="947.3" y1="336.3" x2="932.6" y2="321.1" stroke="#64748b" stroke-width="1.2" opacity="0.25" /><line x1="932.6" y1="321.1" x2="923.6" y2="299.0" stroke="#64748b" stroke-width="1.2" opacity="0.25" /><line x1="923.6" y1="299.0" x2="923.3" y2="272.3" stroke="#64748b" stroke-width="1.2" opacity="0.25" /><line x1="923.3" y1="272.3" x2="958.1" y2="271.3" stroke="#64748b" stroke-width="1.2" opacity="0.25" /><line x1="958.1" y1="271.3" x2="969.3" y2="253.4" stroke="#64748b" stroke-width="1.2" opacity="0.25" /><line x1="969.3" y1="253.4" x2="988.5" y2="239.2" stroke="#64748b" stroke-width="1.2" opacity="0.25" /><line x1="988.5" y1="239.2" x2="1014.3" y2="232.4" stroke="#64748b" stroke-width="1.2" opacity="0.25" /><line x1="1014.3" y1="232.4" x2="1023.8" y2="265.9" stroke="#64748b" stroke-width="1.2" opacity="0.25" /><line x1="1023.8" y1="265.9" x2="1043.9" y2="272.3" stroke="#64748b" stroke-width="1.2" opacity="0.25" /><line x1="1043.9" y1="272.3" x2="1062.3" y2="287.5" stroke="#64748b" stroke-width="1.2" opacity="0.25" /><line x1="1062.3" y1="287.5" x2="1048.0" y2="310.8" stroke="#64748b" stroke-width="1.2" opacity="0.25" /></g>
  <g><circle cx="1097.4" cy="500.0" r="6" fill="#0f766e" stroke="#0f172a" stroke-width="0.8"><title>Feedback 0 | Comunidade 1</title></circle><circle cx="1101.3" cy="521.2" r="6" fill="#0f766e" stroke="#0f172a" stroke-width="0.8"><title>Feedback 1 | Comunidade 1</title></circle><circle cx="1094.9" cy="544.9" r="6" fill="#0f766e" stroke="#0f172a" stroke-width="0.8"><title>Feedback 2 | Comunidade 1</title></circle><circle cx="1077.4" cy="566.1" r="6" fill="#0f766e" stroke="#0f172a" stroke-width="0.8"><title>Feedback 3 | Comunidade 1</title></circle><circle cx="1050.0" cy="547.4" r="6" fill="#0f766e" stroke="#0f172a" stroke-width="0.8"><title>Feedback 4 | Comunidade 1</title></circle><circle cx="1028.8" cy="551.3" r="6" fill="#0f766e" stroke="#0f172a" stroke-width="0.8"><title>Feedback 5 | Comunidade 1</title></circle><circle cx="1005.1" cy="544.9" r="6" fill="#0f766e" stroke="#0f172a" stroke-width="0.8"><title>Feedback 6 | Comunidade 1</title></circle><circle cx="983.9" cy="527.4" r="6" fill="#0f766e" stroke="#0f172a" stroke-width="0.8"><title>Feedback 7 | Comunidade 1</title></circle><circle cx="1002.6" cy="500.0" r="6" fill="#0f766e" stroke="#0f172a" stroke-width="0.8"><title>Feedback 8 | Comunidade 1</title></circle><circle cx="998.7" cy="478.8" r="6" fill="#0f766e" stroke="#0f172a" stroke-width="0.8"><title>Feedback 9 | Comunidade 1</title></circle><circle cx="1005.1" cy="455.1" r="6" fill="#0f766e" stroke="#0f172a" stroke-width="0.8"><title>Feedback 10 | Comunidade 1</title></circle><circle cx="1022.6" cy="433.9" r="6" fill="#0f766e" stroke="#0f172a" stroke-width="0.8"><title>Feedback 11 | Comunidade 1</title></circle><circle cx="1050.0" cy="452.6" r="6" fill="#0f766e" stroke="#0f172a" stroke-width="0.8"><title>Feedback 12 | Comunidade 1</title></circle><circle cx="1071.2" cy="448.7" r="6" fill="#0f766e" stroke="#0f172a" stroke-width="0.8"><title>Feedback 13 | Comunidade 1</title></circle><circle cx="1094.9" cy="455.1" r="6" fill="#0f766e" stroke="#0f172a" stroke-width="0.8"><title>Feedback 14 | Comunidade 1</title></circle><circle cx="1116.1" cy="472.6" r="6" fill="#0f766e" stroke="#0f172a" stroke-width="0.8"><title>Feedback 15 | Comunidade 1</title></circle><circle cx="1041.9" cy="689.2" r="6" fill="#2563eb" stroke="#0f172a" stroke-width="0.8"><title>Feedback 16 | Comunidade 2</title></circle><circle cx="1045.7" cy="710.5" r="6" fill="#2563eb" stroke="#0f172a" stroke-width="0.8"><title>Feedback 17 | Comunidade 2</title></circle><circle cx="1039.4" cy="734.2" r="6" fill="#2563eb" stroke="#0f172a" stroke-width="0.8"><title>Feedback 18 | Comunidade 2</title></circle><circle cx="1021.8" cy="755.4" r="6" fill="#2563eb" stroke="#0f172a" stroke-width="0.8"><title>Feedback 19 | Comunidade 2</title></circle><circle cx="994.4" cy="736.7" r="6" fill="#2563eb" stroke="#0f172a" stroke-width="0.8"><title>Feedback 20 | Comunidade 2</title></circle><circle cx="973.2" cy="740.5" r="6" fill="#2563eb" stroke="#0f172a" stroke-width="0.8"><title>Feedback 21 | Comunidade 2</title></circle><circle cx="949.5" cy="734.2" r="6" fill="#2563eb" stroke="#0f172a" stroke-width="0.8"><title>Feedback 22 | Comunidade 2</title></circle><circle cx="928.3" cy="716.6" r="6" fill="#2563eb" stroke="#0f172a" stroke-width="0.8"><title>Feedback 23 | Comunidade 2</title></circle><circle cx="947.0" cy="689.2" r="6" fill="#2563eb" stroke="#0f172a" stroke-width="0.8"><title>Feedback 24 | Comunidade 2</title></circle><circle cx="943.2" cy="668.0" r="6" fill="#2563eb" stroke="#0f172a" stroke-width="0.8"><title>Feedback 25 | Comunidade 2</title></circle><circle cx="949.5" cy="644.3" r="6" fill="#2563eb" stroke="#0f172a" stroke-width="0.8"><title>Feedback 26 | Comunidade 2</title></circle><circle cx="967.0" cy="623.1" r="6" fill="#2563eb" stroke="#0f172a" stroke-width="0.8"><title>Feedback 27 | Comunidade 2</title></circle><circle cx="994.4" cy="641.8" r="6" fill="#2563eb" stroke="#0f172a" stroke-width="0.8"><title>Feedback 28 | Comunidade 2</title></circle><circle cx="1015.7" cy="638.0" r="6" fill="#2563eb" stroke="#0f172a" stroke-width="0.8"><title>Feedback 29 | Comunidade 2</title></circle><circle cx="1039.4" cy="644.3" r="6" fill="#2563eb" stroke="#0f172a" stroke-width="0.8"><title>Feedback 30 | Comunidade 2</title></circle><circle cx="1060.6" cy="661.8" r="6" fill="#2563eb" stroke="#0f172a" stroke-width="0.8"><title>Feedback 31 | Comunidade 2</title></circle><circle cx="892.8" cy="818.4" r="6" fill="#d97706" stroke="#0f172a" stroke-width="0.8"><title>Feedback 32 | Comunidade 3</title></circle><circle cx="896.7" cy="839.6" r="6" fill="#d97706" stroke="#0f172a" stroke-width="0.8"><title>Feedback 33 | Comunidade 3</title></circle><circle cx="890.3" cy="863.3" r="6" fill="#d97706" stroke="#0f172a" stroke-width="0.8"><title>Feedback 34 | Comunidade 3</title></circle><circle cx="872.8" cy="884.5" r="6" fill="#d97706" stroke="#0f172a" stroke-width="0.8"><title>Feedback 35 | Comunidade 3</title></circle><circle cx="845.4" cy="865.8" r="6" fill="#d97706" stroke="#0f172a" stroke-width="0.8"><title>Feedback 36 | Comunidade 3</title></circle><circle cx="824.2" cy="869.6" r="6" fill="#d97706" stroke="#0f172a" stroke-width="0.8"><title>Feedback 37 | Comunidade 3</title></circle><circle cx="800.5" cy="863.3" r="6" fill="#d97706" stroke="#0f172a" stroke-width="0.8"><title>Feedback 38 | Comunidade 3</title></circle><circle cx="779.2" cy="845.8" r="6" fill="#d97706" stroke="#0f172a" stroke-width="0.8"><title>Feedback 39 | Comunidade 3</title></circle><circle cx="798.0" cy="818.4" r="6" fill="#d97706" stroke="#0f172a" stroke-width="0.8"><title>Feedback 40 | Comunidade 3</title></circle><circle cx="794.1" cy="797.1" r="6" fill="#d97706" stroke="#0f172a" stroke-width="0.8"><title>Feedback 41 | Comunidade 3</title></circle><circle cx="800.5" cy="773.4" r="6" fill="#d97706" stroke="#0f172a" stroke-width="0.8"><title>Feedback 42 | Comunidade 3</title></circle><circle cx="818.0" cy="752.2" r="6" fill="#d97706" stroke="#0f172a" stroke-width="0.8"><title>Feedback 43 | Comunidade 3</title></circle><circle cx="845.4" cy="770.9" r="6" fill="#d97706" stroke="#0f172a" stroke-width="0.8"><title>Feedback 44 | Comunidade 3</title></circle><circle cx="866.6" cy="767.1" r="6" fill="#d97706" stroke="#0f172a" stroke-width="0.8"><title>Feedback 45 | Comunidade 3</title></circle><circle cx="890.3" cy="773.4" r="6" fill="#d97706" stroke="#0f172a" stroke-width="0.8"><title>Feedback 46 | Comunidade 3</title></circle><circle cx="911.5" cy="791.0" r="6" fill="#d97706" stroke="#0f172a" stroke-width="0.8"><title>Feedback 47 | Comunidade 3</title></circle><circle cx="693.5" cy="846.4" r="6" fill="#7c3aed" stroke="#0f172a" stroke-width="0.8"><title>Feedback 48 | Comunidade 4</title></circle><circle cx="695.9" cy="868.4" r="6" fill="#7c3aed" stroke="#0f172a" stroke-width="0.8"><title>Feedback 49 | Comunidade 4</title></circle><circle cx="686.4" cy="891.8" r="6" fill="#7c3aed" stroke="#0f172a" stroke-width="0.8"><title>Feedback 50 | Comunidade 4</title></circle><circle cx="664.7" cy="910.2" r="6" fill="#7c3aed" stroke="#0f172a" stroke-width="0.8"><title>Feedback 51 | Comunidade 4</title></circle><circle cx="640.5" cy="888.7" r="6" fill="#7c3aed" stroke="#0f172a" stroke-width="0.8"><title>Feedback 52 | Comunidade 4</title></circle><circle cx="618.6" cy="886.1" r="6" fill="#7c3aed" stroke="#0f172a" stroke-width="0.8"><title>Feedback 53 | Comunidade 4</title></circle><circle cx="597.9" cy="871.6" r="6" fill="#7c3aed" stroke="#0f172a" stroke-width="0.8"><title>Feedback 54 | Comunidade 4</title></circle><circle cx="584.8" cy="846.4" r="6" fill="#7c3aed" stroke="#0f172a" stroke-width="0.8"><title>Feedback 55 | Comunidade 4</title></circle><circle cx="611.2" cy="827.6" r="6" fill="#7c3aed" stroke="#0f172a" stroke-width="0.8"><title>Feedback 56 | Comunidade 4</title></circle><circle cx="618.6" cy="806.8" r="6" fill="#7c3aed" stroke="#0f172a" stroke-width="0.8"><title>Feedback 57 | Comunidade 4</title></circle><circle cx="637.3" cy="789.9" r="6" fill="#7c3aed" stroke="#0f172a" stroke-width="0.8"><title>Feedback 58 | Comunidade 4</title></circle><circle cx="664.7" cy="782.7" r="6" fill="#7c3aed" stroke="#0f172a" stroke-width="0.8"><title>Feedback 59 | Comunidade 4</title></circle><circle cx="677.2" cy="812.6" r="6" fill="#7c3aed" stroke="#0f172a" stroke-width="0.8"><title>Feedback 60 | Comunidade 4</title></circle><circle cx="695.9" cy="824.4" r="6" fill="#7c3aed" stroke="#0f172a" stroke-width="0.8"><title>Feedback 61 | Comunidade 4</title></circle><circle cx="514.1" cy="764.5" r="6" fill="#dc2626" stroke="#0f172a" stroke-width="0.8"><title>Feedback 62 | Comunidade 5</title></circle><circle cx="516.5" cy="786.5" r="6" fill="#dc2626" stroke="#0f172a" stroke-width="0.8"><title>Feedback 63 | Comunidade 5</title></circle><circle cx="507.0" cy="809.9" r="6" fill="#dc2626" stroke="#0f172a" stroke-width="0.8"><title>Feedback 64 | Comunidade 5</title></circle><circle cx="485.4" cy="828.3" r="6" fill="#dc2626" stroke="#0f172a" stroke-width="0.8"><title>Feedback 65 | Comunidade 5</title></circle><circle cx="461.2" cy="806.8" r="6" fill="#dc2626" stroke="#0f172a" stroke-width="0.8"><title>Feedback 66 | Comunidade 5</title></circle><circle cx="439.2" cy="804.1" r="6" fill="#dc2626" stroke="#0f172a" stroke-width="0.8"><title>Feedback 67 | Comunidade 5</title></circle><circle cx="418.5" cy="789.7" r="6" fill="#dc2626" stroke="#0f172a" stroke-width="0.8"><title>Feedback 68 | Comunidade 5</title></circle><circle cx="405.4" cy="764.5" r="6" fill="#dc2626" stroke="#0f172a" stroke-width="0.8"><title>Feedback 69 | Comunidade 5</title></circle><circle cx="431.8" cy="745.7" r="6" fill="#dc2626" stroke="#0f172a" stroke-width="0.8"><title>Feedback 70 | Comunidade 5</title></circle><circle cx="439.2" cy="724.9" r="6" fill="#dc2626" stroke="#0f172a" stroke-width="0.8"><title>Feedback 71 | Comunidade 5</title></circle><circle cx="457.9" cy="707.9" r="6" fill="#dc2626" stroke="#0f172a" stroke-width="0.8"><title>Feedback 72 | Comunidade 5</title></circle><circle cx="485.4" cy="700.8" r="6" fill="#dc2626" stroke="#0f172a" stroke-width="0.8"><title>Feedback 73 | Comunidade 5</title></circle><circle cx="497.8" cy="730.6" r="6" fill="#dc2626" stroke="#0f172a" stroke-width="0.8"><title>Feedback 74 | Comunidade 5</title></circle><circle cx="516.5" cy="742.5" r="6" fill="#dc2626" stroke="#0f172a" stroke-width="0.8"><title>Feedback 75 | Comunidade 5</title></circle><circle cx="407.5" cy="598.6" r="6" fill="#059669" stroke="#0f172a" stroke-width="0.8"><title>Feedback 76 | Comunidade 6</title></circle><circle cx="409.8" cy="620.6" r="6" fill="#059669" stroke="#0f172a" stroke-width="0.8"><title>Feedback 77 | Comunidade 6</title></circle><circle cx="400.4" cy="644.0" r="6" fill="#059669" stroke="#0f172a" stroke-width="0.8"><title>Feedback 78 | Comunidade 6</title></circle><circle cx="378.7" cy="662.4" r="6" fill="#059669" stroke="#0f172a" stroke-width="0.8"><title>Feedback 79 | Comunidade 6</title></circle><circle cx="354.5" cy="640.8" r="6" fill="#059669" stroke="#0f172a" stroke-width="0.8"><title>Feedback 80 | Comunidade 6</title></circle><circle cx="332.6" cy="638.2" r="6" fill="#059669" stroke="#0f172a" stroke-width="0.8"><title>Feedback 81 | Comunidade 6</title></circle><circle cx="311.9" cy="623.8" r="6" fill="#059669" stroke="#0f172a" stroke-width="0.8"><title>Feedback 82 | Comunidade 6</title></circle><circle cx="298.8" cy="598.6" r="6" fill="#059669" stroke="#0f172a" stroke-width="0.8"><title>Feedback 83 | Comunidade 6</title></circle><circle cx="325.1" cy="579.8" r="6" fill="#059669" stroke="#0f172a" stroke-width="0.8"><title>Feedback 84 | Comunidade 6</title></circle><circle cx="332.6" cy="559.0" r="6" fill="#059669" stroke="#0f172a" stroke-width="0.8"><title>Feedback 85 | Comunidade 6</title></circle><circle cx="351.3" cy="542.0" r="6" fill="#059669" stroke="#0f172a" stroke-width="0.8"><title>Feedback 86 | Comunidade 6</title></circle><circle cx="378.7" cy="534.8" r="6" fill="#059669" stroke="#0f172a" stroke-width="0.8"><title>Feedback 87 | Comunidade 6</title></circle><circle cx="391.2" cy="564.7" r="6" fill="#059669" stroke="#0f172a" stroke-width="0.8"><title>Feedback 88 | Comunidade 6</title></circle><circle cx="409.8" cy="576.6" r="6" fill="#059669" stroke="#0f172a" stroke-width="0.8"><title>Feedback 89 | Comunidade 6</title></circle><circle cx="393.1" cy="401.4" r="6" fill="#9333ea" stroke="#0f172a" stroke-width="0.8"><title>Feedback 90 | Comunidade 7</title></circle><circle cx="385.3" cy="427.9" r="6" fill="#9333ea" stroke="#0f172a" stroke-width="0.8"><title>Feedback 92 | Comunidade 7</title></circle><circle cx="355.5" cy="439.2" r="6" fill="#9333ea" stroke="#0f172a" stroke-width="0.8"><title>Feedback 94 | Comunidade 7</title></circle><circle cx="324.8" cy="420.4" r="6" fill="#9333ea" stroke="#0f172a" stroke-width="0.8"><title>Feedback 96 | Comunidade 7</title></circle><circle cx="338.1" cy="388.8" r="6" fill="#9333ea" stroke="#0f172a" stroke-width="0.8"><title>Feedback 98 | Comunidade 7</title></circle><circle cx="356.6" cy="368.4" r="6" fill="#9333ea" stroke="#0f172a" stroke-width="0.8"><title>Feedback 100 | Comunidade 7</title></circle><circle cx="388.4" cy="371.1" r="6" fill="#9333ea" stroke="#0f172a" stroke-width="0.8"><title>Feedback 102 | Comunidade 7</title></circle><circle cx="499.7" cy="235.5" r="6" fill="#0891b2" stroke="#0f172a" stroke-width="0.8"><title>Feedback 91 | Comunidade 8</title></circle><circle cx="491.9" cy="262.0" r="6" fill="#0891b2" stroke="#0f172a" stroke-width="0.8"><title>Feedback 93 | Comunidade 8</title></circle><circle cx="462.2" cy="273.3" r="6" fill="#0891b2" stroke="#0f172a" stroke-width="0.8"><title>Feedback 95 | Comunidade 8</title></circle><circle cx="431.4" cy="254.4" r="6" fill="#0891b2" stroke="#0f172a" stroke-width="0.8"><title>Feedback 97 | Comunidade 8</title></circle><circle cx="444.7" cy="222.9" r="6" fill="#0891b2" stroke="#0f172a" stroke-width="0.8"><title>Feedback 99 | Comunidade 8</title></circle><circle cx="463.3" cy="202.5" r="6" fill="#0891b2" stroke="#0f172a" stroke-width="0.8"><title>Feedback 101 | Comunidade 8</title></circle><circle cx="495.0" cy="205.2" r="6" fill="#0891b2" stroke="#0f172a" stroke-width="0.8"><title>Feedback 103 | Comunidade 8</title></circle><circle cx="693.5" cy="153.6" r="6" fill="#be123c" stroke="#0f172a" stroke-width="0.8"><title>Feedback 104 | Comunidade 9</title></circle><circle cx="695.9" cy="175.6" r="6" fill="#be123c" stroke="#0f172a" stroke-width="0.8"><title>Feedback 105 | Comunidade 9</title></circle><circle cx="686.4" cy="198.9" r="6" fill="#be123c" stroke="#0f172a" stroke-width="0.8"><title>Feedback 106 | Comunidade 9</title></circle><circle cx="664.7" cy="217.3" r="6" fill="#be123c" stroke="#0f172a" stroke-width="0.8"><title>Feedback 107 | Comunidade 9</title></circle><circle cx="640.5" cy="195.8" r="6" fill="#be123c" stroke="#0f172a" stroke-width="0.8"><title>Feedback 108 | Comunidade 9</title></circle><circle cx="618.6" cy="193.2" r="6" fill="#be123c" stroke="#0f172a" stroke-width="0.8"><title>Feedback 109 | Comunidade 9</title></circle><circle cx="597.9" cy="178.7" r="6" fill="#be123c" stroke="#0f172a" stroke-width="0.8"><title>Feedback 110 | Comunidade 9</title></circle><circle cx="584.8" cy="153.6" r="6" fill="#be123c" stroke="#0f172a" stroke-width="0.8"><title>Feedback 111 | Comunidade 9</title></circle><circle cx="611.2" cy="134.8" r="6" fill="#be123c" stroke="#0f172a" stroke-width="0.8"><title>Feedback 112 | Comunidade 9</title></circle><circle cx="618.6" cy="113.9" r="6" fill="#be123c" stroke="#0f172a" stroke-width="0.8"><title>Feedback 113 | Comunidade 9</title></circle><circle cx="637.3" cy="97.0" r="6" fill="#be123c" stroke="#0f172a" stroke-width="0.8"><title>Feedback 114 | Comunidade 9</title></circle><circle cx="664.7" cy="89.8" r="6" fill="#be123c" stroke="#0f172a" stroke-width="0.8"><title>Feedback 115 | Comunidade 9</title></circle><circle cx="677.2" cy="119.7" r="6" fill="#be123c" stroke="#0f172a" stroke-width="0.8"><title>Feedback 116 | Comunidade 9</title></circle><circle cx="695.9" cy="131.6" r="6" fill="#be123c" stroke="#0f172a" stroke-width="0.8"><title>Feedback 117 | Comunidade 9</title></circle><circle cx="886.7" cy="181.6" r="6" fill="#4d7c0f" stroke="#0f172a" stroke-width="0.8"><title>Feedback 118 | Comunidade 10</title></circle><circle cx="888.1" cy="204.1" r="6" fill="#4d7c0f" stroke="#0f172a" stroke-width="0.8"><title>Feedback 119 | Comunidade 10</title></circle><circle cx="876.8" cy="227.1" r="6" fill="#4d7c0f" stroke="#0f172a" stroke-width="0.8"><title>Feedback 120 | Comunidade 10</title></circle><circle cx="852.9" cy="243.5" r="6" fill="#4d7c0f" stroke="#0f172a" stroke-width="0.8"><title>Feedback 121 | Comunidade 10</title></circle><circle cx="830.8" cy="220.2" r="6" fill="#4d7c0f" stroke="#0f172a" stroke-width="0.8"><title>Feedback 122 | Comunidade 10</title></circle><circle cx="809.3" cy="213.6" r="6" fill="#4d7c0f" stroke="#0f172a" stroke-width="0.8"><title>Feedback 123 | Comunidade 10</title></circle><circle cx="791.7" cy="194.9" r="6" fill="#4d7c0f" stroke="#0f172a" stroke-width="0.8"><title>Feedback 124 | Comunidade 10</title></circle><circle cx="784.9" cy="166.7" r="6" fill="#4d7c0f" stroke="#0f172a" stroke-width="0.8"><title>Feedback 125 | Comunidade 10</title></circle><circle cx="814.5" cy="154.3" r="6" fill="#4d7c0f" stroke="#0f172a" stroke-width="0.8"><title>Feedback 126 | Comunidade 10</title></circle><circle cx="828.3" cy="136.5" r="6" fill="#4d7c0f" stroke="#0f172a" stroke-width="0.8"><title>Feedback 127 | Comunidade 10</title></circle><circle cx="852.1" cy="126.7" r="6" fill="#4d7c0f" stroke="#0f172a" stroke-width="0.8"><title>Feedback 128 | Comunidade 10</title></circle><circle cx="880.8" cy="130.4" r="6" fill="#4d7c0f" stroke="#0f172a" stroke-width="0.8"><title>Feedback 129 | Comunidade 10</title></circle><circle cx="881.9" cy="162.4" r="6" fill="#4d7c0f" stroke="#0f172a" stroke-width="0.8"><title>Feedback 130 | Comunidade 10</title></circle><circle cx="1048.0" cy="310.8" r="6" fill="#64748b" stroke="#0f172a" stroke-width="0.8"><title>Feedback 131 | Comunidade 11</title></circle><circle cx="1053.7" cy="331.1" r="6" fill="#64748b" stroke="#0f172a" stroke-width="0.8"><title>Feedback 132 | Comunidade 11</title></circle><circle cx="1051.1" cy="354.9" r="6" fill="#64748b" stroke="#0f172a" stroke-width="0.8"><title>Feedback 133 | Comunidade 11</title></circle><circle cx="1038.7" cy="378.5" r="6" fill="#64748b" stroke="#0f172a" stroke-width="0.8"><title>Feedback 134 | Comunidade 11</title></circle><circle cx="1007.6" cy="362.7" r="6" fill="#64748b" stroke="#0f172a" stroke-width="0.8"><title>Feedback 135 | Comunidade 11</title></circle><circle cx="989.3" cy="373.3" r="6" fill="#64748b" stroke="#0f172a" stroke-width="0.8"><title>Feedback 136 | Comunidade 11</title></circle><circle cx="965.6" cy="376.5" r="6" fill="#64748b" stroke="#0f172a" stroke-width="0.8"><title>Feedback 137 | Comunidade 11</title></circle><circle cx="939.6" cy="370.3" r="6" fill="#64748b" stroke="#0f172a" stroke-width="0.8"><title>Feedback 138 | Comunidade 11</title></circle><circle cx="947.3" cy="336.3" r="6" fill="#64748b" stroke="#0f172a" stroke-width="0.8"><title>Feedback 139 | Comunidade 11</title></circle><circle cx="932.6" cy="321.1" r="6" fill="#64748b" stroke="#0f172a" stroke-width="0.8"><title>Feedback 140 | Comunidade 11</title></circle><circle cx="923.6" cy="299.0" r="6" fill="#64748b" stroke="#0f172a" stroke-width="0.8"><title>Feedback 141 | Comunidade 11</title></circle><circle cx="923.3" cy="272.3" r="6" fill="#64748b" stroke="#0f172a" stroke-width="0.8"><title>Feedback 142 | Comunidade 11</title></circle><circle cx="958.1" cy="271.3" r="6" fill="#64748b" stroke="#0f172a" stroke-width="0.8"><title>Feedback 143 | Comunidade 11</title></circle><circle cx="969.3" cy="253.4" r="6" fill="#64748b" stroke="#0f172a" stroke-width="0.8"><title>Feedback 144 | Comunidade 11</title></circle><circle cx="988.5" cy="239.2" r="6" fill="#64748b" stroke="#0f172a" stroke-width="0.8"><title>Feedback 145 | Comunidade 11</title></circle><circle cx="1014.3" cy="232.4" r="6" fill="#64748b" stroke="#0f172a" stroke-width="0.8"><title>Feedback 146 | Comunidade 11</title></circle><circle cx="1023.8" cy="265.9" r="6" fill="#64748b" stroke="#0f172a" stroke-width="0.8"><title>Feedback 147 | Comunidade 11</title></circle><circle cx="1043.9" cy="272.3" r="6" fill="#64748b" stroke="#0f172a" stroke-width="0.8"><title>Feedback 148 | Comunidade 11</title></circle><circle cx="1062.3" cy="287.5" r="6" fill="#64748b" stroke="#0f172a" stroke-width="0.8"><title>Feedback 149 | Comunidade 11</title></circle></g>
</svg>
